 <svg viewBox="0 0 24 24" xmlns="http://www.w3.org/2000/svg" aria-hidden="true" fill="#364452" width="16px"><path fill-rule="evenodd" clip-rule="evenodd" d="M13.13 2.3c-.74-.2-1.52-.2-2.26 0-.39.11-.78.31-1.31.68-.54.37-1.19.88-2.09 1.6l-2 1.6c-1.13.91-1.59 1.28-1.91 1.73-.3.41-.52.87-.66 1.36-.14.54-.15 1.12-.15 2.58V14c0 1.41 0 2.43.07 3.22.06.79.18 1.3.4 1.71.4.8 1.05 1.45 1.85 1.86.41.2.92.33 1.7.4.8.06 1.82.06 3.23.06h4c1.41 0 2.43 0 3.22-.07.79-.06 1.3-.18 1.71-.4.8-.4 1.45-1.05 1.86-1.85.2-.41.33-.92.4-1.7.06-.8.06-1.82.06-3.23v-2.15c0-1.46 0-2.04-.15-2.58-.14-.49-.36-.95-.66-1.36-.32-.45-.78-.82-1.91-1.73l-2-1.6c-.9-.72-1.55-1.23-2.09-1.6a4.38 4.38 0 0 0-1.3-.67ZM10.47.87c1-.28 2.06-.28 3.06 0 .6.17 1.16.46 1.76.88.6.4 1.28.96 2.15 1.65l2.03 1.62.09.07c1.01.82 1.64 1.32 2.1 1.95.4.56.7 1.18.88 1.85.21.75.21 1.55.21 2.85V14.03c0 1.38 0 2.45-.07 3.32-.07.88-.22 1.6-.56 2.26a5.75 5.75 0 0 1-2.51 2.51c-.66.34-1.38.49-2.26.56-.87.07-1.94.07-3.32.07H9.97c-1.38 0-2.45 0-3.32-.07a5.92 5.92 0 0 1-2.26-.56 5.75 5.75 0 0 1-2.51-2.51 5.92 5.92 0 0 1-.56-2.26c-.07-.87-.07-1.94-.07-3.32V11.73c0-1.3 0-2.1.2-2.85.19-.67.49-1.3.9-1.85.45-.63 1.08-1.13 2.1-1.95l.08-.07L6.56 3.4c.87-.7 1.56-1.24 2.15-1.65.6-.42 1.15-.71 1.76-.88ZM8.25 16c0-.41.34-.75.75-.75h6a.75.75 0 0 1 0 1.5H9a.75.75 0 0 1-.75-.75Z"></path></svg>