 <svg viewBox="0 0 24 24" xmlns="http://www.w3.org/2000/svg" aria-hidden="true" fill="#364452" width="16px"><path fill-rule="evenodd" clip-rule="evenodd" d="M12 2.75c-4.64 0-8.25 3.22-8.25 7.75 0 3.68 1.63 6.37 3.52 8.15.94.9 1.94 1.55 2.81 1.99.9.44 1.6.61 1.92.61a5.1 5.1 0 0 0 1.92-.61 11.8 11.8 0 0 0 2.81-1.99 10.98 10.98 0 0 0 3.52-8.15c0-4.53-3.6-7.75-8.25-7.75ZM2.25 10.5c0-5.47 4.4-9.25 9.75-9.25 5.36 0 9.75 3.78 9.75 9.25 0 4.17-1.87 7.23-3.98 9.24-1.06 1-2.19 1.74-3.19 2.24-.97.48-1.9.77-2.58.77-.67 0-1.6-.29-2.58-.77-1-.5-2.13-1.24-3.19-2.24-2.11-2-3.98-5.07-3.98-9.24ZM12 8.75a2.25 2.25 0 1 0 0 4.5 2.25 2.25 0 0 0 0-4.5ZM8.25 11a3.75 3.75 0 1 1 7.5 0 3.75 3.75 0 0 1-7.5 0Z"></path></svg>