 <svg viewBox="0 0 24 24" xmlns="http://www.w3.org/2000/svg" aria-hidden="true" fill="#364452" width="16px"><path fill-rule="evenodd" clip-rule="evenodd" d="M4.53.47c.3.3.3.77 0 1.06l-3 3A.75.75 0 0 1 .47 3.47l3-3c.3-.3.77-.3 1.06 0Zm14.94 0c.3-.3.77-.3 1.06 0l3 3a.75.75 0 0 1-1.06 1.06l-3-3a.75.75 0 0 1 0-1.06ZM12 2.75a9.25 9.25 0 1 0 0 18.5 9.25 9.25 0 0 0 0-18.5ZM1.25 12a10.75 10.75 0 1 1 21.5 0 10.75 10.75 0 0 1-21.5 0ZM12 7.25c.41 0 .75.34.75.75v3.6l2.67 1.78a.75.75 0 1 1-.84 1.24l-3-2a.75.75 0 0 1-.33-.62V8c0-.41.34-.75.75-.75Z"></path></svg>